PSF_ID_stride2.mot
nRows=11
nColumns=38

name PSF_ID_stride2.mot
datacolumns 38
datarows 11
range 0.3300000000 0.3800000000
endheader
time	pelvis_tilt_moment	pelvis_list_moment	pelvis_rotation_moment	pelvis_tx_force	pelvis_ty_force	pelvis_tz_force	hip_flexion_r_moment	hip_adduction_r_moment	hip_rotation_r_moment	knee_angle_r_moment	ankle_angle_r_moment	subtalar_angle_r_moment	mtp_angle_r_moment	hip_flexion_l_moment	hip_adduction_l_moment	hip_rotation_l_moment	knee_angle_l_moment	ankle_angle_l_moment	subtalar_angle_l_moment	mtp_angle_l_moment	lumbar_extension_moment	lumbar_bending_moment	lumbar_rotation_moment	arm_flex_r_moment	arm_add_r_moment	arm_rot_r_moment	elbow_flex_r_moment	pro_sup_r_moment	wrist_flex_r_moment	wrist_dev_r_moment	arm_flex_l_moment	arm_add_l_moment	arm_rot_l_moment	elbow_flex_l_moment	pro_sup_l_moment	wrist_flex_l_moment	wrist_dev_l_moment
        0.3300000000	       -6.4453010646	      -55.5878603949	       -0.1268915563	        1.1410400075	      189.6871035662	      198.3570820089	       75.4905556103	        5.5237767820	        0.4901554956	       21.9347633445	        4.5540694737	       -0.7009303311	        0.2132115912	     -124.5458928074	       22.7112451209	       -3.1249086198	      -72.8687475551	        3.0450076743	       -2.4710568822	       -0.0184775078	        5.4034988260	       10.3495201249	      -10.9323244910	       -5.9259258407	       -0.9089747477	       -0.4455750529	       -1.1042153441	       -0.0030668922	       -0.0810284381	        0.1106605046	       -3.7794411165	        0.9493800333	        1.5288027012	       -0.7905136479	        0.0639101634	        0.1519391767	        0.1415639219	
        0.3350000000	      -19.0085486189	       24.5141345334	       10.7822503457	       10.7441809768	      299.1142308589	      167.4343871240	       74.2494401812	        5.4272477292	       -0.1242698755	       22.3012496033	        4.6223707767	       -0.6386686957	        0.2198727796	      -58.5107316026	        2.5838207289	       -5.2031974682	      -27.6907529199	       16.9330812708	       -7.6337000591	        0.0880880734	       20.0333238019	       14.4825361463	       -5.3858359111	       -6.5180493944	       -0.2062901023	        0.3166811242	       -0.4579868507	        0.0060202980	        0.0137788539	        0.0852287140	       -5.7189240135	        0.5886476297	        1.2187527633	       -0.2548352326	        0.0402103585	        0.1267850175	        0.0947350548	
        0.3400000000	      -34.1936813452	       66.7785713196	       22.7251827126	       19.6898923996	      373.1627055541	      130.6586295971	       75.2887403686	        6.0775045827	       -0.8063076446	       22.2186686950	        4.7056788464	       -0.5739437812	        0.2275601186	      -33.8489370326	      -18.3914776473	       -5.6081833649	       -3.6853915073	       23.8506536145	       -7.9375920058	        0.2000730468	       36.5170442158	       20.6418801523	        0.0532027787	       -6.5911798651	        0.3160584679	        0.9136621519	        0.5652262473	        0.0066191917	        0.1017832476	        0.0160815659	       -7.0457790750	        0.5222985781	        0.9995061025	        0.6324171837	        0.0120946938	        0.1139464192	        0.0132849248	
        0.3450000000	      -46.0719458772	       82.3564685868	       36.7685933545	       20.1131791369	      357.1558992926	       66.4838177571	       79.1574957544	        7.3443407667	       -1.3850674528	       22.1158052559	        4.7932501205	       -0.5210847022	        0.2349537644	      -39.9751883956	      -39.2914021223	       -8.8317735822	        9.5978724325	       21.6088695315	       -6.2696387159	        0.3005664858	       49.3865773988	       26.1917617794	        4.8779006052	       -5.8515772422	        0.6702849389	        1.3082089535	        1.6545962450	        0.0000168166	        0.1717046397	       -0.0667496861	       -7.3459306886	        0.6596990610	        0.8021018613	        1.5866939313	       -0.0163971669	        0.1039063746	       -0.0781360836	
        0.3500000000	      -44.8962314137	       72.5576441740	       51.0241385530	       13.3262608704	      267.5820669873	      -10.2870512905	       84.4230602252	        8.9206660418	       -1.6171062327	       22.3852350717	        4.8441876547	       -0.4901893519	        0.2392825777	      -64.3492549616	      -55.5816108361	      -15.8862173185	       10.7424416384	       12.0139972891	       -4.7503741510	        0.3732457356	       49.9695686444	       26.4493904665	        8.5882376119	       -4.4925693778	        0.9350297698	        1.4969280529	        2.5174661742	       -0.0080220831	        0.2158546763	       -0.1384870485	       -6.8709633322	        0.7371497254	        0.5581392997	        2.3370384458	       -0.0410974116	        0.0873425726	       -0.1557813974	
        0.3550000000	      -37.9783879247	       43.0585449274	       63.3977443831	       -3.7254843878	       91.2201663605	      -79.6889308416	       89.2169327113	       10.5460273410	       -1.6823995819	       23.1927037346	        4.8618918590	       -0.4756666038	        0.2408637119	     -107.7404927184	      -63.5273359353	      -26.4402207232	       10.6361540776	       -6.0323489301	       -4.1395732157	        0.4065990020	       48.7053135231	       25.8218165019	       10.8121947862	       -2.7447313241	        1.1644061011	        1.5624006977	        3.0913670691	       -0.0153283592	        0.2338396215	       -0.1915298762	       -5.5880657033	        0.7557067241	        0.2761286386	        2.8322241787	       -0.0606245940	        0.0644840739	       -0.2131775603	
        0.3600000000	      -17.1792049913	       -2.8477627341	       71.8690563717	      -24.2184297683	     -110.4296435048	     -123.6581382671	       91.9683109521	       11.9712498669	       -1.4668532213	       24.6125252225	        4.8133118530	       -0.4724338589	        0.2387462352	     -155.4398917005	      -64.3768804382	      -38.8329917298	        6.8473573901	      -27.6659752968	       -5.5474539155	        0.4091832951	       38.1488929561	       20.0174993868	       11.5607438316	       -0.9537394212	        1.3852916116	        1.5159934926	        3.3666310629	       -0.0208879678	        0.2341579759	       -0.2224459106	       -3.8453943723	        0.5851135726	       -0.0212000746	        3.0687403421	       -0.0736432209	        0.0387835521	       -0.2470535074	
        0.3650000000	        7.0244418612	      -47.8693978146	       74.1305343956	      -42.2608153401	     -281.7412347769	     -130.8043413622	       91.3470059509	       13.1397209137	       -1.2551799157	       26.2231386265	        4.7148087842	       -0.4660440795	        0.2347098228	     -195.6555772366	      -58.3511423617	      -49.6857356076	        8.8024669799	      -47.8641438565	       -8.2105000697	        0.3762462554	       27.7078149544	       13.6888574523	       10.3159380298	        0.5592319328	        1.5645358717	        1.3545021133	        3.5235586651	       -0.0290670484	        0.2163036827	       -0.2471885416	       -1.9902444664	        0.4318905023	       -0.2177090213	        3.2398254657	       -0.0809158640	        0.0276150416	       -0.2713740516	
        0.3700000000	       27.7940604777	      -69.8897603341	       71.0797093088	      -53.5429237755	     -369.4508317215	     -120.3380990492	       88.7194019593	       14.1947833831	       -1.3518626318	       27.6580716834	        4.5909421158	       -0.4431913126	        0.2312359018	     -209.4637261029	      -49.9733742901	      -53.7470784141	       19.7951827984	      -63.3257216338	      -10.0963069122	        0.3213146026	       25.5202847161	       10.7397079090	        7.3308458651	        1.6383552371	        1.5520847465	        1.0557280277	        3.8233880876	       -0.0450123396	        0.1855325980	       -0.2886348669	       -0.1748017205	        0.5357053408	       -0.1592061306	        3.5981573904	       -0.0840176549	        0.0432349988	       -0.3074229602	
        0.3750000000	       31.1847567855	      -65.1660152195	       62.5244524849	      -54.5977829214	     -364.1749440345	     -104.5459896641	       84.7367524309	       15.3042451791	       -1.8548827684	       28.2582487439	        4.4709497210	       -0.3902029827	        0.2310708685	     -203.2861583491	      -47.6710006372	      -51.7625097609	       44.4480594142	      -72.6022339918	       -9.7154385118	        0.2572503940	       29.2935672497	       12.1004444122	        2.4970618129	        2.1736140778	        1.3758719212	        0.5796572926	        4.4368438196	       -0.0734476800	        0.1442429156	       -0.3633472447	        1.5290483091	        1.0128508170	        0.1497145201	        4.3272306968	       -0.0843359139	        0.0969591311	       -0.3696076128	
        0.3800000000	       28.1968247599	      -30.9289607844	       50.5582109660	      -50.4397690406	     -280.3553835431	      -95.8497914020	       81.0123438712	       16.4873187504	       -3.0023070269	       28.4447624484	        4.3641476830	       -0.3018875900	        0.2333504818	     -171.0776256760	      -47.4497345859	      -41.3254910495	       79.7765725071	      -78.5438380974	       -6.7070109058	        0.1940474887	       46.3713084348	       20.0645044159	       -3.7582899490	        2.3953781507	        0.8598934408	       -0.0758798362	        5.4529882309	       -0.1155539907	        0.0948412637	       -0.4783573696	        3.1120096644	        2.0617535335	        0.8381045493	        5.5071802120	       -0.0836909095	        0.1950390207	       -0.4644689444	
